<?xml version="1.0" encoding="UTF-8"?>
<svg id="Layer_2" data-name="Layer 2" xmlns="http://www.w3.org/2000/svg" viewBox="0 0 113.03 112.86">
  <defs>
    <style>
      .cls-1 {
        fill: none;
      }

      .cls-1, .cls-2, .cls-3 {
        stroke-width: 0px;
      }

      .cls-2 {
        fill: #f47522;
      }

      .cls-3 {
        fill: #89301c;
      }
    </style>
  </defs>
  <path class="cls-1" d="M106.76,44.09h-6.28v-9.56h6.28v-2.77h-25.15v46.46h6.24v9.55h-6.24v3h25.15v-46.68ZM100.43,44.09v18.6h-6.27v18.71h-6.27v-21.87h6.27v-18.71h6.27v3.28Z"/>
  <polygon class="cls-1" points="6.27 62.9 6.27 90.77 12.54 90.77 18.82 90.77 18.82 87.77 18.82 84.49 25.09 84.49 25.09 69.18 18.82 69.18 18.82 65.9 18.82 62.9 12.54 62.9 6.27 62.9"/>
  <rect class="cls-3" x="59.64" y="71.93" width="6.28" height="3.28"/>
  <rect class="cls-3" x="53.36" y="84.49" width="6.28" height="3.28"/>
  <rect class="cls-3" x="47.08" y="72.08" width="6.28" height="3.28"/>
  <rect class="cls-3" x="40.85" y="97.04" width="12.5" height="3.28"/>
  <rect class="cls-3" x="40.81" y="59.54" width="6.27" height="3.28"/>
  <rect class="cls-3" x="59.64" y="97.02" width="12.55" height="3.28"/>
  <rect class="cls-3" x="65.92" y="59.39" width="6.27" height="3.28"/>
  <rect class="cls-3" y="90.77" width="6.27" height="3.28"/>
  <rect class="cls-3" x="25.09" y="97.04" width="12.52" height="3.28"/>
  <polygon class="cls-3" points="6.27 97.04 6.27 100.32 12.54 100.32 18.82 100.32 18.82 97.04 12.54 97.04 6.27 97.04"/>
  <polygon class="cls-3" points="18.82 90.77 18.82 94.05 18.82 94.05 25.09 94.05 25.09 90.77 18.82 90.77"/>
  <polygon class="cls-3" points="12.54 62.9 18.82 62.9 18.82 62.9 18.82 59.63 12.54 59.63 6.27 59.63 6.27 62.9 12.54 62.9"/>
  <rect class="cls-3" x="18.82" y="41.02" width="6.27" height="3.28"/>
  <rect class="cls-3" x="18.82" y="65.9" width="6.27" height="3.28"/>
  <rect class="cls-3" x="81.61" y="28.48" width="25.15" height="3.28"/>
  <polygon class="cls-3" points="81.61 97.04 81.61 100.32 94.24 100.32 106.88 100.32 106.88 97.04 94.24 97.04 81.61 97.04"/>
  <rect class="cls-3" x="81.61" y="84.49" width="6.24" height="3.28"/>
  <polygon class="cls-3" points="106.76 90.77 106.88 90.77 106.88 93.94 113.03 93.94 113.03 90.66 106.76 90.66 106.76 90.77"/>
  <rect class="cls-3" x="100.48" y="40.81" width="6.28" height="3.28"/>
  <rect class="cls-3" x="75.34" y="90.77" width="6.27" height="3.28"/>
  <rect class="cls-3" x="87.89" y="78.12" width="6.27" height="3.28"/>
  <polygon class="cls-3" points="94.16 59.52 94.16 62.69 100.43 62.69 100.43 59.41 94.16 59.41 94.16 59.52"/>
  <polygon class="cls-2" points="59.64 56.39 59.64 65.68 53.36 65.68 53.36 56.54 53.36 53.26 40.81 53.26 40.81 56.54 40.81 59.54 47.08 59.54 47.08 62.82 47.08 72.08 53.36 72.08 53.36 75.36 53.36 78.22 47.09 78.22 47.09 81.5 47.09 90.77 40.85 90.77 40.85 94.05 40.85 97.04 53.36 97.04 53.36 87.77 53.36 84.49 59.64 84.49 59.64 87.77 59.64 97.02 72.19 97.02 72.19 94.03 72.19 90.75 65.92 90.75 65.92 81.48 65.92 78.2 59.64 78.2 59.64 75.21 59.64 71.93 65.92 71.93 65.92 62.67 65.92 59.39 72.19 59.39 72.19 56.39 72.19 53.11 59.64 53.11 59.64 56.39"/>
  <polygon class="cls-2" points="6.27 62.9 6.27 59.63 0 59.63 0 62.9 0 90.77 6.27 90.77 6.27 62.9"/>
  <polygon class="cls-2" points="31.36 38.03 31.36 34.75 18.82 34.75 18.82 38.03 18.82 41.02 25.09 41.02 25.09 44.3 25.09 59.62 18.82 59.62 18.82 56.63 18.82 53.36 12.54 53.36 6.27 53.36 6.27 56.63 6.27 59.63 12.54 59.63 18.82 59.63 18.82 62.9 18.82 62.9 18.82 65.9 25.09 65.9 25.09 69.18 25.09 84.49 18.82 84.49 18.82 87.77 18.82 90.77 12.54 90.77 6.27 90.77 6.27 94.05 6.27 97.04 12.54 97.04 18.82 97.04 18.82 94.05 18.82 94.05 18.82 90.77 25.09 90.77 25.09 94.05 25.09 97.04 37.6 97.04 37.6 94.05 37.6 90.77 31.36 90.77 31.36 38.03"/>
  <polygon class="cls-2" points="106.78 28.48 106.78 25.49 106.78 22.21 81.52 22.21 81.52 25.49 81.52 28.48 75.34 28.48 75.34 31.76 75.34 90.77 81.61 90.77 81.61 94.05 81.61 97.04 94.24 97.04 106.88 97.04 106.88 94.05 106.88 93.94 106.88 90.77 106.76 90.77 94.24 90.77 81.61 90.77 81.61 87.77 81.61 84.49 87.85 84.49 87.85 81.5 87.85 78.22 81.61 78.22 81.61 31.76 81.61 28.48 106.76 28.48 106.76 31.76 106.76 34.53 100.48 34.53 100.48 37.81 100.48 40.81 106.76 40.81 106.76 44.09 106.76 90.66 113.03 90.66 113.03 31.76 113.03 28.48 106.78 28.48"/>
  <polygon class="cls-2" points="87.89 59.52 87.89 62.79 87.89 78.12 94.16 78.12 94.16 62.79 94.16 62.69 94.16 59.52 87.89 59.52"/>
  <polygon class="cls-2" points="94.16 44.09 94.16 59.41 100.43 59.41 100.43 44.09 100.43 40.81 94.16 40.81 94.16 44.09"/>
  <rect class="cls-3" x="75.49" y="106.59" width="37.55" height="6.27"/>
</svg>